<?xml version="1.0" standalone="no"?>
<!DOCTYPE svg PUBLIC "-//W3C//DTD SVG 20010904//EN"
 "http://www.w3.org/TR/2001/REC-SVG-20010904/DTD/svg10.dtd">
<svg version="1.0" xmlns="http://www.w3.org/2000/svg"
 width="1024.000000pt" height="1024.000000pt" viewBox="0 0 1024.000000 1024.000000"
 preserveAspectRatio="xMidYMid meet">
<metadata>
Created by potrace 1.14, written by Peter Selinger 2001-2017
</metadata>
<g transform="translate(0.000000,1024.000000) scale(0.100000,-0.100000)"
fill="#000000" stroke="none">
<path d="M0 5120 l0 -5120 5120 0 5120 0 0 5120 0 5120 -5120 0 -5120 0 0
-5120z m3055 1837 c312 -63 557 -196 700 -378 114 -147 172 -305 182 -499 13
-267 -61 -467 -236 -640 -99 -97 -187 -151 -331 -201 l-94 -33 93 -18 c356
-70 616 -317 685 -649 59 -286 10 -571 -138 -792 -159 -240 -423 -393 -801
-465 -67 -12 -230 -16 -997 -19 l-918 -4 0 1861 0 1861 888 -4 c771 -3 897 -6
967 -20z m2197 -777 c271 -1146 289 -1228 367 -1615 39 -192 74 -361 77 -375
5 -19 11 -3 25 65 77 375 196 883 408 1733 l247 987 394 0 395 0 222 -895
c245 -987 304 -1234 390 -1637 32 -149 59 -271 60 -269 2 1 32 148 68 327 90
444 144 683 373 1644 l197 830 412 3 412 2 -18 -62 c-10 -35 -235 -872 -501
-1861 l-484 -1797 -430 2 -430 3 -273 1050 c-150 578 -298 1165 -329 1305 -31
140 -58 262 -61 270 -3 8 -10 -5 -15 -30 -52 -255 -161 -698 -387 -1565 l-267
-1030 -432 -3 c-238 -1 -432 0 -432 3 0 5 -946 3528 -980 3648 l-19 67 411 -2
411 -3 189 -795z"/>
<path d="M1950 5905 l0 -477 398 5 c321 4 409 8 460 21 151 39 258 120 319
242 34 69 37 83 41 184 4 90 1 120 -17 178 -42 141 -147 241 -306 293 -68 22
-84 23 -482 27 l-413 3 0 -476z"/>
<path d="M1950 4361 l0 -501 383 0 c408 0 518 9 646 51 128 43 235 141 283
259 20 47 23 74 23 185 0 129 0 130 -37 208 -49 101 -119 172 -219 220 -139
67 -156 69 -641 74 l-438 5 0 -501z"/>
</g>
</svg>
